<svg width="130" height="128" viewBox="0 0 130 128" fill="none" xmlns="http://www.w3.org/2000/svg">
	<path d="M39 109H89" stroke="#a684ff" stroke-width="10" stroke-linecap="round" stroke-linejoin="round" />
	<path
		d="M89.1451 22.5355C88.2075 23.4732 86.9357 24 85.6096 24H24C21.2386 24 19 26.2386 19 29V79C19 81.7614 21.2386 84 24 84H104C106.761 84 109 81.7614 109 79V45.3878C109 44.0615 109.527 42.7896 110.465 41.8519C113.615 38.7025 119 40.9335 119 45.3878V79C119 87.2843 112.284 94 104 94H24C15.7157 94 9 87.2843 9 79V29C9 20.7157 15.7157 14 24 14H85.6096C90.0641 14 92.295 19.3857 89.1451 22.5355Z"
		fill="#a684ff" />
	<path d="M91 32L100 41" stroke="#a684ff" stroke-width="6" stroke-linecap="round" stroke-linejoin="round" />
	<path
		d="M77.5001 65C79.5768 65 81.6068 64.3842 83.3335 63.2304C85.0603 62.0767 86.4061 60.4368 87.2008 58.5182C87.9955 56.5996 88.2034 54.4884 87.7983 52.4516C87.3932 50.4148 86.3931 48.5438 84.9247 47.0754C83.4562 45.6069 81.5853 44.6069 79.5485 44.2018C77.5117 43.7966 75.4005 44.0045 73.4819 44.7993C71.5633 45.594 69.9234 46.9398 68.7696 48.6665C67.6159 50.3932 67.0001 52.4233 67.0001 54.5C67.0006 56.4967 66.2412 58.4188 64.8761 59.876C64.4554 60.2956 64.1688 60.8306 64.0526 61.4133C63.9364 61.9959 63.9958 62.5999 64.2234 63.1488C64.4509 63.6976 64.8362 64.1666 65.3305 64.4961C65.8249 64.8257 66.4059 65.0011 67.0001 65H77.5001Z"
		stroke="#a684ff" stroke-width="6" stroke-linecap="round" stroke-linejoin="round" />
	<path
		d="M87.9069 53.093L122.134 18.872C123.328 17.6777 123.999 16.058 123.999 14.369C123.999 12.6801 123.328 11.0603 122.134 9.866C120.94 8.67173 119.32 8.0008 117.631 8.0008C115.942 8.0008 114.322 8.67173 113.128 9.866L78.9009 44.093"
		stroke="#a684ff" stroke-width="6" stroke-linecap="round" stroke-linejoin="round" />
</svg>